

<?xml version="1.0" encoding="UTF-8"?>
<svg xmlns="http://www.w3.org/2000/svg" xmlns:xlink="http://www.w3.org/1999/xlink" width="0" height="0">
<symbol id="antenna 1" width="64" height="64" viewBox="0 0 64 64" fill="none">
<path d="M61.5463 44.1952L44.6599 27.1851L46.534 17.9541C47.0176 18.1429 47.5318 18.2416 48.0508 18.2453H48.0636C50.4482 18.2735 52.404 16.3633 52.4323 13.9788C52.4606 11.5943 50.5503 9.6384 48.1658 9.61013C45.7812 9.582 43.8254 11.4921 43.7971 13.8767C43.7911 14.3869 43.8755 14.8941 44.0466 15.3749L34.1266 16.5856L17.9452 0.32C17.7467 0.117467 17.4757 0.00226667 17.1921 0C16.9121 0.00146667 16.644 0.112933 16.4455 0.3104L13.4204 3.3184C13.004 3.73493 13.004 4.41013 13.4204 4.82667L15.0481 6.47787C8.74201 18.0737 10.7903 32.4335 20.0871 41.8037C20.1724 41.8853 20.2713 41.9513 20.3793 41.9989C20.3121 42.3599 20.2771 42.7261 20.2748 43.0933V55.4667H7.47481C4.53081 55.4701 2.14495 57.856 2.14148 60.8V62.9333C2.14148 63.5224 2.61908 64 3.20815 64H52.2748C52.8639 64 53.3415 63.5224 53.3415 62.9333V60.8C53.338 57.856 50.9522 55.4701 48.0082 55.4667H35.2082V49.9829C37.2134 50.4035 39.2564 50.6179 41.3052 50.6229C46.2215 50.6176 51.0595 49.392 55.3852 47.056L57.0215 48.7019C57.22 48.9044 57.491 49.0196 57.7746 49.0219C58.0546 49.0204 58.3227 48.9089 58.5212 48.7115L61.5463 45.7035C61.9627 45.2869 61.9627 44.6117 61.5463 44.1952ZM46.5596 12.4661C47.395 11.6352 48.7458 11.6389 49.5766 12.4743C50.4075 13.3096 50.4038 14.6604 49.5684 15.4912C49.1686 15.8889 48.6275 16.1121 48.0635 16.112H48.0571C46.879 16.1059 45.9287 15.1459 45.9348 13.9676C45.9378 13.4036 46.1639 12.8639 46.5638 12.4661H46.5596ZM44.0487 19.4752L42.8519 25.3664L40.5009 23.0016L44.0487 19.4752ZM42.837 17.6715L38.997 21.4891L36.0263 18.5024L42.837 17.6715ZM48.0082 57.6C49.7755 57.6 51.2082 59.0327 51.2082 60.8V61.8667H4.27481V60.8C4.27481 59.0327 5.70748 57.6 7.47481 57.6H48.0082ZM33.0748 53.3333V55.4667H22.4081V53.3333H33.0748ZM22.4081 51.2V43.0933C22.4081 40.5056 24.8007 38.4 27.7415 38.4C30.6823 38.4 33.0748 40.5056 33.0748 43.0933V51.2H22.4081ZM35.2082 47.808V43.0933C35.2082 39.3291 31.8588 36.2667 27.7415 36.2667C25.0793 36.2259 22.59 37.5809 21.1793 39.8389C13.0639 31.2913 11.2364 18.5485 16.6221 8.06467L53.8258 45.4816C48.081 48.404 41.4955 49.2268 35.2082 47.808ZM57.7863 46.4405L56.2834 44.9291L17.1815 5.59147L15.6721 4.07893L17.1815 2.57493L33.0513 18.5344C33.0588 18.5344 33.0631 18.5483 33.0706 18.5536L59.2999 44.9365L57.7863 46.4405Z" fill="#2E2F42"/>
<path d="M27.7511 40.5333H27.7415C25.9742 40.5306 24.5394 41.9612 24.5367 43.7285C24.534 45.4958 25.9646 46.9306 27.7319 46.9333H27.7415C29.5088 46.936 30.9436 45.5054 30.9463 43.7381C30.9489 41.9708 29.5184 40.536 27.7511 40.5333ZM28.4978 44.4896C28.297 44.6893 28.0248 44.801 27.7415 44.8C27.1524 44.7969 26.6774 44.3169 26.6804 43.7278C26.6819 43.4458 26.795 43.176 26.9948 42.977C27.1934 42.7796 27.4615 42.6681 27.7415 42.6666C28.3306 42.6697 28.8056 43.1497 28.8026 43.7388C28.8011 44.0208 28.688 44.2906 28.4882 44.4896H28.4978Z" fill="#4D5AE5"/>
</symbol>



<?xml version="1.0" encoding="UTF-8"?>
<svg xmlns="http://www.w3.org/2000/svg" xmlns:xlink="http://www.w3.org/1999/xlink" width="0" height="0">
<symbol id="clock 1" width="64" height="64" viewBox="0 0 64 64" fill="none">
<g clip-path="url(#clip0_297080_1787)">
<path d="M62.5933 30.6025C62.5899 13.6978 48.8828 -0.00341734 31.9775 6.39362e-07C15.0728 0.00341861 1.37158 13.7109 1.375 30.6157C1.37793 43.9316 9.98877 55.7178 22.6738 59.7681C22.7949 59.8062 22.9209 59.8257 23.0474 59.8252C23.2886 59.8247 23.5249 59.7603 23.7324 59.6377C24.0024 59.478 24.2041 59.2241 24.2988 58.9248L32.0288 34.4248C34.1421 34.4141 35.8462 32.6919 35.835 30.5791C35.8242 28.4658 34.1025 26.7617 31.9893 26.7725C31.4209 26.7749 30.8599 26.9058 30.3491 27.1553L20.1372 16.9419C19.6304 16.4526 18.8232 16.4668 18.334 16.9731C17.8564 17.4678 17.8564 18.251 18.334 18.7456L28.5405 28.9639C27.7573 30.5625 28.2051 32.4922 29.6133 33.582L22.248 56.9277C7.69238 51.5659 0.239258 35.4199 5.60108 20.8643C10.9629 6.30859 27.1089 -1.14453 41.6646 4.21729C56.2202 9.5791 63.6733 25.7256 58.3115 40.2808C55.6919 47.3921 50.3096 53.1431 43.3872 56.2275L42.5913 52.479C42.4458 51.79 41.7686 51.3496 41.0796 51.4956C40.8623 51.542 40.6606 51.6441 40.4946 51.792L32.8208 58.6431C32.2944 59.1113 32.2476 59.9175 32.7163 60.4439C32.8687 60.6148 33.064 60.7417 33.2827 60.8115L43.0801 63.9385C43.7505 64.1538 44.4688 63.7852 44.6841 63.1143C44.7524 62.9024 44.7637 62.6768 44.7178 62.459L43.9356 58.7808C55.2642 54.0049 62.6196 42.8965 62.5933 30.6025ZM31.9844 29.3272C32.6885 29.3272 33.2598 29.8984 33.2598 30.6025C33.2598 31.3071 32.6885 31.8779 31.9844 31.8779C31.2798 31.8779 30.709 31.3071 30.709 30.6025C30.709 29.8984 31.2798 29.3272 31.9844 29.3272ZM36.1851 59.0552L40.5532 55.1587L41.7588 60.8394L36.1851 59.0552Z" fill="#2E2F42"/>
<path d="M30.709 6.37012V8.9209C30.709 9.62549 31.2798 10.1963 31.9844 10.1963C32.6885 10.1963 33.2598 9.62549 33.2598 8.9209V6.37012C33.2598 5.66602 32.6885 5.09473 31.9844 5.09473C31.2798 5.09473 30.709 5.66602 30.709 6.37012Z" fill="#4D5AE5"/>
<path d="M7.75195 29.3271C7.04736 29.3271 6.47656 29.8984 6.47656 30.6025C6.47656 31.3071 7.04736 31.8779 7.75195 31.8779H10.3027C11.0073 31.8779 11.5781 31.3071 11.5781 30.6025C11.5781 29.8984 11.0073 29.3271 10.3027 29.3271H7.75195Z" fill="#4D5AE5"/>
<path d="M56.2162 31.8779C56.9208 31.8779 57.4916 31.3071 57.4916 30.6025C57.4916 29.8984 56.9208 29.3271 56.2162 29.3271H53.6655C52.9614 29.3271 52.3901 29.8984 52.3901 30.6025C52.3901 31.3071 52.9614 31.8779 53.6655 31.8779H56.2162Z" fill="#4D5AE5"/>
</g>
<defs>
<clipPath>
<rect width="64" height="64" fill="white"/>
</clipPath>
</defs>
</symbol>

<symbol id="Client 5" width="168" height="88" viewBox="0 0 168 88" fill="none">
<rect x="0.5" y="0.5" width="167" height="87" rx="3.5" stroke="#8E8F99"/>
<path d="M58.7919 60.373C59.0374 60.6465 59.1681 60.9891 59.1613 61.3407C59.1738 61.57 59.1288 61.7989 59.0298 62.0105C58.9307 62.2221 58.78 62.4109 58.5889 62.563C58.112 62.8872 57.5213 63.0457 56.925 63.0093H54V56.8769H56.8651C57.4307 56.8431 57.9918 56.9871 58.4525 57.2844C58.6375 57.4238 58.784 57.6 58.8805 57.7991C58.9769 57.9982 59.0206 58.2148 59.0082 58.4317C59.025 58.77 58.907 59.1026 58.6754 59.3694C58.4531 59.6131 58.1459 59.782 57.8036 59.8488C58.1916 59.9125 58.5419 60.0983 58.7919 60.373ZM55.361 59.4473H56.5856C56.8639 59.4659 57.1404 59.3935 57.3643 59.2436C57.4562 59.1686 57.5278 59.0755 57.5734 58.9716C57.619 58.8677 57.6374 58.7558 57.6272 58.6445C57.6358 58.5335 57.617 58.4222 57.5722 58.3186C57.5273 58.215 57.4574 58.1217 57.3676 58.0453C57.137 57.8911 56.852 57.8177 56.5657 57.8386H55.361V59.4473ZM57.4841 61.799C57.5824 61.7222 57.6596 61.6261 57.7099 61.518C57.7601 61.4099 57.7819 61.2928 57.7736 61.1759C57.7811 61.0576 57.7583 60.9394 57.7069 60.8303C57.6556 60.7212 57.5771 60.6242 57.4774 60.5468C57.2379 60.3869 56.9432 60.3084 56.6455 60.3251H55.361V62.0117H56.6622C56.955 62.0269 57.2449 61.9519 57.4841 61.799Z" fill="#8E8F99"/>
<path d="M64.6487 63.0093L63.0547 60.6127H62.4557V63.0093H61.0847V56.8769H63.6803C64.3346 56.8358 64.9814 57.0224 65.4873 57.3982C65.8501 57.731 66.0689 58.1696 66.1043 58.6348C66.1397 59.1001 65.9893 59.5614 65.6803 59.9357C65.36 60.2659 64.9226 60.4861 64.4424 60.5588L66.1395 63.0093H64.6487ZM62.4557 59.7769H63.5772C64.3558 59.7769 64.7452 59.4673 64.7452 58.8482C64.7531 58.7217 64.7318 58.5952 64.6825 58.4766C64.6333 58.358 64.5571 58.2499 64.459 58.1591C64.2129 57.9749 63.896 57.8855 63.5772 57.9105H62.4424L62.4557 59.7769Z" fill="#8E8F99"/>
<path d="M72.1426 61.7752H69.4106L68.928 63.0094H67.4905L69.9996 56.9459H71.5536L74.0527 63.0094H72.6151L72.1426 61.7752ZM71.7766 60.8465L70.7782 58.2581L69.7799 60.8465H71.7766Z" fill="#8E8F99"/>
<path d="M81.5234 63.0094H80.1624L77.1109 58.8392V63.0094H75.7532V56.877H77.1109L80.1624 61.0711V56.877H81.5234V63.0094Z" fill="#8E8F99"/>
<path d="M89.2903 61.5415C89.0089 62.0045 88.5801 62.3811 88.059 62.6229C87.4666 62.8923 86.8091 63.0251 86.1456 63.0094H83.723V56.877H86.1456C86.8079 56.8614 87.4646 56.991 88.059 57.2545C88.58 57.4908 89.0092 57.8637 89.2903 58.324C89.5704 58.8227 89.7164 59.3738 89.7164 59.9327C89.7164 60.4916 89.5704 61.0427 89.2903 61.5415ZM87.7329 61.3947C88.1213 60.9873 88.3349 60.4681 88.3349 59.9312C88.3349 59.3943 88.1213 58.8752 87.7329 58.4678C87.2634 58.0988 86.6511 57.9114 86.0291 57.9465H85.0841V61.9159H86.0291C86.6511 61.951 87.2634 61.7637 87.7329 61.3947Z" fill="#8E8F99"/>
<path d="M72.9945 22.7667C72.9945 22.7667 90.5614 28.7374 90.1887 37.3773V51.9908C90.1887 51.9908 72.6351 46.0172 73.0012 37.3773L72.9945 22.7667Z" fill="#8E8F99"/>
<path d="M105.839 48.5694C109.157 46.5139 112.994 45.2408 117 44.8666V40.292C112.384 41.8935 108.469 44.7975 105.839 48.5694Z" fill="#8E8F99"/>
<path d="M103.846 49.9478C106.561 45.0253 111.269 41.2268 117 39.3336V26.1521C117 26.1521 91.9823 34.6572 92.5114 46.9609V67.7668C92.5114 67.7668 93.6262 67.3863 95.3799 66.6733C95.3799 66.0083 95.3799 65.3372 95.4598 64.6631C95.9776 58.9511 98.9939 53.6581 103.846 49.9478Z" fill="#8E8F99"/>
<path d="M101.466 57.6769C101.598 56.234 101.891 54.8067 102.342 53.4169C99.3205 56.6211 97.491 60.5971 97.1104 64.7859C97.0738 65.1814 97.0538 65.5768 97.0438 65.9843C98.4648 65.3701 100.119 64.6032 101.856 63.7015C101.412 61.7197 101.281 59.6916 101.466 57.6769Z" fill="#8E8F99"/>
<path d="M102.461 57.7519C102.295 59.5746 102.399 61.4092 102.771 63.2072C109.606 59.5254 117.286 53.8363 116.99 46.961V46.3618C112.107 46.8537 107.538 48.7756 103.985 51.8321C103.154 53.7263 102.64 55.7214 102.461 57.7519Z" fill="#8E8F99"/>
</symbol>

</svg>
